<?xml version="1.0" encoding="UTF-8"?>
<svg id="Livello_1" data-name="Livello 1" xmlns="http://www.w3.org/2000/svg" xmlns:xlink="http://www.w3.org/1999/xlink" viewBox="0 0 500 500">
  <defs>
    <style>
      .cls-1 {
        fill: none;
      }

      .cls-1, .cls-2 {
        stroke-width: 0px;
      }

      .cls-2 {
        fill: #fff;
      }

      .cls-3 {
        clip-path: url(#clippath);
      }
    </style>
    <clipPath id="clippath">
      <path class="cls-1" d="m386.41,250.01h0c-21.06-45.86-76.06-76.87-137.51-76.77-61.29.1-115.97,31.12-136.93,76.77h0c21.06,45.86,76.07,76.87,137.5,76.77,61.29-.1,115.97-31.12,136.93-76.77h0Z"/>
    </clipPath>
  </defs>
  <path class="cls-2" d="m391.65,247.6c-22.02-47.95-79.25-80.13-142.46-80.13h-.29c-63.07.12-120.19,32.3-142.17,80.13-.69,1.54-.69,3.28,0,4.82,22.02,47.95,79.25,80.12,142.46,80.12h.29c63.07-.1,120.19-32.28,142.17-80.12.69-1.54.69-3.28,0-4.82Zm-142.19,73.42h-.27c-57.72,0-109.87-28.41-130.84-71.02,20.92-42.5,72.99-70.92,130.58-71.02h.27c57.72,0,109.87,28.43,130.84,71.02-20.92,42.51-72.99,70.94-130.58,71.02Z"/>
  <path class="cls-2" d="m291.13,248.91c0,22.48-18.21,40.71-40.69,40.71s-40.71-18.23-40.71-40.71,18.22-40.69,40.71-40.69c6.99,0,13.57,1.77,19.33,4.88-5.93,2.26-10.13,7.98-10.13,14.7,0,8.69,7.04,15.76,15.76,15.76,5.78,0,10.83-3.13,13.55-7.77,1.42,4.11,2.19,8.52,2.19,13.13Z"/>
  <path class="cls-2" d="m250.44,188.41c-33.36,0-60.5,27.14-60.5,60.5s27.14,60.5,60.5,60.5,60.48-27.14,60.48-60.5-27.14-60.5-60.48-60.5Zm0,109.48c-27.01,0-48.98-21.98-48.98-48.98s21.98-48.98,48.98-48.98,48.96,21.98,48.96,48.98-21.96,48.98-48.96,48.98Z"/>
  <g class="cls-3">
    <path class="cls-2" d="m147.17,316.55c-1.07,0-2.14-.3-3.11-.92-2.68-1.72-3.45-5.28-1.73-7.96l16.05-24.96-3.43-18.88c-.34-1.86.26-3.77,1.59-5.1l9.6-9.6c2.25-2.25,5.89-2.25,8.14,0,2.25,2.25,2.25,5.89,0,8.14l-7.46,7.46,3.3,18.15c.26,1.44-.03,2.92-.82,4.14l-17.27,26.87c-1.1,1.71-2.96,2.65-4.85,2.65Z"/>
    <path class="cls-2" d="m164.44,289.68c-2.9,0-5.39-2.18-5.71-5.12-.35-3.16,1.93-6.01,5.09-6.36l17.27-1.92c3.15-.35,6.01,1.93,6.36,5.09.35,3.16-1.93,6.01-5.09,6.36l-17.27,1.92c-.22.02-.43.04-.64.04Z"/>
    <path class="cls-2" d="m387.09,301.19c-1.02,0-2.05-.27-2.99-.84l-44.15-26.87c-1.72-1.05-2.76-2.91-2.76-4.92v-15.45l-13.85-6.16c-1.08-.48-1.99-1.28-2.6-2.3l-5.76-9.6c-1.64-2.73-.75-6.26,1.98-7.9,2.72-1.64,6.26-.75,7.9,1.97l4.82,8.04,15.61,6.94c2.08.92,3.42,2.99,3.42,5.26v15.96l41.38,25.19c2.72,1.65,3.58,5.2,1.92,7.91-1.08,1.78-2.98,2.76-4.92,2.76Z"/>
    <path class="cls-2" d="m342.95,255.13c-.97,0-1.95-.24-2.85-.76-2.76-1.58-3.72-5.09-2.14-7.86l7.68-13.44c1.58-2.76,5.1-3.72,7.86-2.14,2.76,1.58,3.72,5.09,2.14,7.86l-7.68,13.44c-1.06,1.86-3.01,2.9-5,2.9Z"/>
    <path class="cls-2" d="m342.96,274.32c-.38,0-.75-.04-1.14-.11l-19.19-3.84c-3.12-.62-5.14-3.66-4.52-6.78.62-3.12,3.66-5.13,6.78-4.52l19.19,3.84c3.12.62,5.14,3.66,4.52,6.78-.55,2.74-2.95,4.63-5.64,4.63Z"/>
    <path class="cls-2" d="m172.13,237.85c-1.96,0-3.86-1-4.94-2.8l-5.76-9.6c-.54-.9-.82-1.92-.82-2.96v-13.44l-16.12-21.5c-1.91-2.54-1.39-6.15,1.15-8.06,2.55-1.91,6.15-1.39,8.06,1.15l17.27,23.03c.75,1,1.15,2.21,1.15,3.45v13.76l4.94,8.23c1.64,2.73.75,6.26-1.97,7.9-.93.56-1.95.82-2.96.82Z"/>
    <path class="cls-2" d="m183.65,216.74c-.41,0-.83-.04-1.25-.14l-17.27-3.84c-3.1-.69-5.06-3.77-4.37-6.87.69-3.1,3.77-5.05,6.87-4.37l17.27,3.84c3.1.69,5.06,3.77,4.37,6.87-.6,2.68-2.98,4.51-5.62,4.51Z"/>
    <path class="cls-2" d="m143.34,260.89c-2.51,0-4.81-1.65-5.53-4.18l-3.24-11.35-25.04-16.1c-2.68-1.72-3.45-5.28-1.73-7.96,1.72-2.68,5.28-3.45,7.96-1.73l26.87,17.27c1.18.76,2.04,1.92,2.42,3.26l3.84,13.44c.87,3.06-.9,6.24-3.95,7.12-.53.15-1.06.22-1.59.22Z"/>
    <path class="cls-2" d="m139.49,247.45c-2.86,0-5.34-2.13-5.71-5.04-.39-3.16,1.84-6.03,5-6.43l15.36-1.92c3.15-.39,6.03,1.84,6.43,5,.39,3.16-1.84,6.03-5,6.43l-15.36,1.92c-.24.03-.48.04-.72.04Z"/>
    <path class="cls-2" d="m333.36,324.23c-1.98,0-3.91-1.02-4.98-2.86l-12.57-21.55-9.98-4.99c-2.84-1.42-4-4.88-2.57-7.73,1.42-2.84,4.88-4,7.73-2.57l11.52,5.76c1,.5,1.83,1.28,2.4,2.25l13.44,23.03c1.6,2.75.67,6.27-2.07,7.88-.91.53-1.91.79-2.9.79Z"/>
    <path class="cls-2" d="m316.08,222.5c-.6,0-1.22-.1-1.82-.3-3.02-1.01-4.65-4.27-3.64-7.28l3.84-11.52c.31-.93.85-1.76,1.57-2.42l23.03-21.11c2.35-2.15,5.99-1.99,8.14.35,2.15,2.34,1.99,5.99-.35,8.14l-21.93,20.11-3.37,10.1c-.8,2.41-3.05,3.94-5.46,3.94Z"/>
    <path class="cls-2" d="m319.92,210.98c-.55,0-1.1-.08-1.66-.24l-19.19-5.76c-3.05-.91-4.77-4.12-3.86-7.17.91-3.05,4.13-4.78,7.17-3.86l19.19,5.76c3.05.91,4.77,4.12,3.86,7.17-.75,2.49-3.04,4.11-5.51,4.11Z"/>
  </g>
</svg>