<?xml version="1.0" encoding="utf-8"?>
<!-- Generator: Adobe Illustrator 28.0.0, SVG Export Plug-In . SVG Version: 6.00 Build 0)  -->
<svg version="1.1" id="Livello_1" xmlns="http://www.w3.org/2000/svg" xmlns:xlink="http://www.w3.org/1999/xlink" x="0px" y="0px"
	 viewBox="0 0 500 500" style="enable-background:new 0 0 500 500;" xml:space="preserve">
<style type="text/css">
	.st0{opacity:0.15;fill:#000000;}
	.st1{opacity:0.15;clip-path:url(#SVGID_00000048500441490511330230000013912856960241760663_);}
	.st2{fill:#000000;}
</style>
<path class="st0" d="M391.6,247.6c-22-47.9-79.2-80.1-142.5-80.1h-0.3c-63.1,0.1-120.2,32.3-142.2,80.1c-0.7,1.5-0.7,3.3,0,4.8
	c22,48,79.2,80.1,142.5,80.1h0.3c63.1-0.1,120.2-32.3,142.2-80.1C392.3,250.9,392.3,249.1,391.6,247.6z M249.5,321h-0.3
	c-57.7,0-109.9-28.4-130.8-71c20.9-42.5,73-70.9,130.6-71h0.3c57.7,0,109.9,28.4,130.8,71C359.1,292.5,307,320.9,249.5,321
	L249.5,321z"/>
<path class="st0" d="M291.1,248.9c0,22.5-18.2,40.7-40.7,40.7s-40.7-18.2-40.7-40.7s18.2-40.7,40.7-40.7c7,0,13.6,1.8,19.3,4.9
	c-5.9,2.3-10.1,8-10.1,14.7c0,8.7,7,15.8,15.8,15.8c5.8,0,10.8-3.1,13.5-7.8C290.4,239.9,291.1,244.3,291.1,248.9L291.1,248.9z"/>
<path class="st0" d="M250.4,188.4c-33.4,0-60.5,27.1-60.5,60.5s27.1,60.5,60.5,60.5s60.5-27.1,60.5-60.5S283.8,188.4,250.4,188.4
	L250.4,188.4z M250.4,297.9c-27,0-49-22-49-49s22-49,49-49s49,22,49,49S277.4,297.9,250.4,297.9z"/>
<g>
	<defs>
		<path id="SVGID_1_" d="M380,250L380,250c-20.1-42.4-72.5-71.1-131.1-71c-58.4,0.1-110.6,28.8-130.6,71l0,0
			c20.1,42.4,72.5,71.1,131.1,71C307.9,320.9,360,292.2,380,250L380,250L380,250z"/>
	</defs>
	<clipPath id="SVGID_00000094597116993069913770000015207876136268297891_">
		<use xlink:href="#SVGID_1_"  style="overflow:visible;"/>
	</clipPath>
	<g style="opacity:0.15;clip-path:url(#SVGID_00000094597116993069913770000015207876136268297891_);">
		<path class="st2" d="M147.2,316.5c-1.1,0-2.1-0.3-3.1-0.9c-2.7-1.7-3.4-5.3-1.7-8l16.1-25l-3.4-18.9c-0.3-1.9,0.3-3.8,1.6-5.1
			l9.6-9.6c2.2-2.2,5.9-2.2,8.1,0s2.2,5.9,0,8.1l-7.5,7.5l3.3,18.1c0.3,1.4,0,2.9-0.8,4.1L152,313.9
			C150.9,315.6,149.1,316.5,147.2,316.5L147.2,316.5z"/>
		<path class="st2" d="M164.4,289.7c-2.9,0-5.4-2.2-5.7-5.1c-0.4-3.2,1.9-6,5.1-6.4l17.3-1.9c3.1-0.4,6,1.9,6.4,5.1s-1.9,6-5.1,6.4
			l-17.3,1.9C164.9,289.7,164.7,289.7,164.4,289.7L164.4,289.7z"/>
		<path class="st2" d="M387.1,301.2c-1,0-2-0.3-3-0.8L340,273.5c-1.7-1-2.8-2.9-2.8-4.9v-15.4l-13.9-6.2c-1.1-0.5-2-1.3-2.6-2.3
			L315,235c-1.6-2.7-0.8-6.3,2-7.9c2.7-1.6,6.3-0.8,7.9,2l4.8,8l15.6,6.9c2.1,0.9,3.4,3,3.4,5.3v16l41.4,25.2
			c2.7,1.6,3.6,5.2,1.9,7.9C390.9,300.2,389,301.2,387.1,301.2L387.1,301.2z"/>
		<path class="st2" d="M343,255.1c-1,0-2-0.2-2.9-0.8c-2.8-1.6-3.7-5.1-2.1-7.9l7.7-13.4c1.6-2.8,5.1-3.7,7.9-2.1
			c2.8,1.6,3.7,5.1,2.1,7.9l-7.7,13.4C346.9,254.1,344.9,255.1,343,255.1L343,255.1z"/>
		<path class="st2" d="M343,274.3c-0.4,0-0.8,0-1.1-0.1l-19.2-3.8c-3.1-0.6-5.1-3.7-4.5-6.8c0.6-3.1,3.7-5.1,6.8-4.5l19.2,3.8
			c3.1,0.6,5.1,3.7,4.5,6.8C348,272.4,345.6,274.3,343,274.3L343,274.3z"/>
		<path class="st2" d="M172.1,237.9c-2,0-3.9-1-4.9-2.8l-5.8-9.6c-0.5-0.9-0.8-1.9-0.8-3V209l-16.1-21.5c-1.9-2.5-1.4-6.1,1.1-8.1
			c2.6-1.9,6.1-1.4,8.1,1.1l17.3,23c0.8,1,1.1,2.2,1.1,3.4v13.8l4.9,8.2c1.6,2.7,0.8,6.3-2,7.9C174.2,237.6,173.1,237.8,172.1,237.9
			L172.1,237.9z"/>
		<path class="st2" d="M183.6,216.7c-0.4,0-0.8,0-1.2-0.1l-17.3-3.8c-3.1-0.7-5.1-3.8-4.4-6.9c0.7-3.1,3.8-5.1,6.9-4.4l17.3,3.8
			c3.1,0.7,5.1,3.8,4.4,6.9C188.7,214.9,186.3,216.7,183.6,216.7z"/>
		<path class="st2" d="M143.3,260.9c-2.5,0-4.8-1.6-5.5-4.2l-3.2-11.4l-25-16.1c-2.7-1.7-3.4-5.3-1.7-8c1.7-2.7,5.3-3.4,8-1.7
			l26.9,17.3c1.2,0.8,2,1.9,2.4,3.3l3.8,13.4c0.9,3.1-0.9,6.2-3.9,7.1C144.4,260.8,143.9,260.9,143.3,260.9L143.3,260.9z"/>
		<path class="st2" d="M139.5,247.4c-2.9,0-5.3-2.1-5.7-5c-0.4-3.2,1.8-6,5-6.4l15.4-1.9c3.1-0.4,6,1.8,6.4,5c0.4,3.2-1.8,6-5,6.4
			l-15.4,1.9C140,247.4,139.7,247.4,139.5,247.4L139.5,247.4z"/>
		<path class="st2" d="M333.4,324.2c-2,0-3.9-1-5-2.9l-12.6-21.5l-10-5c-2.8-1.4-4-4.9-2.6-7.7c1.4-2.8,4.9-4,7.7-2.6l11.5,5.8
			c1,0.5,1.8,1.3,2.4,2.2l13.4,23c1.6,2.8,0.7,6.3-2.1,7.9C335.4,324,334.4,324.2,333.4,324.2L333.4,324.2z"/>
		<path class="st2" d="M316.1,222.5c-0.6,0-1.2-0.1-1.8-0.3c-3-1-4.6-4.3-3.6-7.3l3.8-11.5c0.3-0.9,0.9-1.8,1.6-2.4l23-21.1
			c2.4-2.1,6-2,8.1,0.4c2.1,2.3,2,6-0.4,8.1l-21.9,20.1l-3.4,10.1C320.8,221,318.5,222.5,316.1,222.5L316.1,222.5z"/>
		<path class="st2" d="M319.9,211c-0.5,0-1.1-0.1-1.7-0.2l-19.2-5.8c-3-0.9-4.8-4.1-3.9-7.2s4.1-4.8,7.2-3.9l19.2,5.8
			c3,0.9,4.8,4.1,3.9,7.2C324.7,209.4,322.4,211,319.9,211L319.9,211z"/>
	</g>
</g>
</svg>
