<?xml version="1.0" encoding="UTF-8"?>
<svg id="Livello_1" data-name="Livello 1" xmlns="http://www.w3.org/2000/svg" viewBox="0 0 500 500">
  <defs>
    <style>
      .cls-1 {
        fill: #fff;
        stroke-width: 0px;
      }
    </style>
  </defs>
  <path class="cls-1" d="m385.65,250c-21.06-45.86-76.07-76.87-137.51-76.77-61.29.1-115.97,31.12-136.93,76.77h0,0s0,0,0,0h0c21.06,45.86,76.06,76.87,137.5,76.77,61.29-.1,115.97-31.12,136.93-76.77h0Zm-137.22,57.93c-32,0-57.94-25.94-57.94-57.94s25.94-57.94,57.94-57.94,57.94,25.94,57.94,57.94-25.94,57.94-57.94,57.94Z"/>
  <path class="cls-1" d="m275.71,284.34c-7.49,5.95-16.97,9.52-27.27,9.52s-19.79-3.57-27.28-9.52h54.55Z"/>
  <path class="cls-1" d="m290.16,263.49c-1.32,4.15-3.26,8.02-5.7,11.52h-72.05c-2.44-3.49-4.38-7.37-5.7-11.52h83.45Z"/>
  <path class="cls-1" d="m292.29,250c0,1.4-.06,2.78-.21,4.16h-87.29c-.15-1.38-.21-2.76-.21-4.16,0-2.51.21-4.97.61-7.35h86.49c.4,2.38.61,4.84.61,7.35Z"/>
  <path class="cls-1" d="m288.99,233.3h-81.11c1.73-4.2,4.09-8.08,6.99-11.52h67.14c2.9,3.44,5.26,7.31,6.99,11.52Z"/>
  <path class="cls-1" d="m271.12,212.45h-45.37c6.62-4.01,14.38-6.31,22.69-6.31s16.06,2.3,22.69,6.31Z"/>
</svg>