<?xml version="1.0" encoding="UTF-8"?>
<svg id="Livello_1" data-name="Livello 1" xmlns="http://www.w3.org/2000/svg" viewBox="0 0 500 500">
  <defs>
    <style>
      .cls-1 {
        fill: #fff;
        stroke-width: 0px;
      }
    </style>
  </defs>
  <path class="cls-1" d="m248.43,214.45c-19.62,0-35.53,15.91-35.53,35.55s15.91,35.55,35.53,35.55,35.55-15.91,35.55-35.55-15.91-35.55-35.55-35.55Zm0,0c-19.62,0-35.53,15.91-35.53,35.55s15.91,35.55,35.53,35.55,35.55-15.91,35.55-35.55-15.91-35.55-35.55-35.55Zm0,0c-19.62,0-35.53,15.91-35.53,35.55s15.91,35.55,35.53,35.55,35.55-15.91,35.55-35.55-15.91-35.55-35.55-35.55Zm0,0c-19.62,0-35.53,15.91-35.53,35.55s15.91,35.55,35.53,35.55,35.55-15.91,35.55-35.55-15.91-35.55-35.55-35.55Zm0,0c-19.62,0-35.53,15.91-35.53,35.55s15.91,35.55,35.53,35.55,35.55-15.91,35.55-35.55-15.91-35.55-35.55-35.55Zm0,0c-19.62,0-35.53,15.91-35.53,35.55s15.91,35.55,35.53,35.55,35.55-15.91,35.55-35.55-15.91-35.55-35.55-35.55Zm0,0c-19.62,0-35.53,15.91-35.53,35.55s15.91,35.55,35.53,35.55,35.55-15.91,35.55-35.55-15.91-35.55-35.55-35.55Zm0,0c-19.62,0-35.53,15.91-35.53,35.55s15.91,35.55,35.53,35.55,35.55-15.91,35.55-35.55-15.91-35.55-35.55-35.55Zm-.29-41.23c-61.29.1-115.97,31.13-136.93,76.78,21.02,45.8,75.89,76.78,137.22,76.78h.29c61.29-.1,115.97-31.11,136.93-76.78-21.06-45.85-76.07-76.87-137.5-76.78Zm54.89,52.99c-1.57.65-3.17,1.09-4.7,1.29,3.11,6.85,4.84,14.47,4.84,22.5,0,30.23-24.51,54.74-54.74,54.74s-54.72-24.51-54.72-54.74,24.49-54.74,54.72-54.74c16.1,0,30.6,6.95,40.61,18.02,1.59-1.94,3.86-3.63,6.58-4.76,6.83-2.86,14.05-1.23,16.1,3.67,2.03,4.88-1.84,11.17-8.69,14.03Zm-54.61-11.77c-19.62,0-35.53,15.91-35.53,35.55s15.91,35.55,35.53,35.55,35.55-15.91,35.55-35.55-15.91-35.55-35.55-35.55Zm0,0c-19.62,0-35.53,15.91-35.53,35.55s15.91,35.55,35.53,35.55,35.55-15.91,35.55-35.55-15.91-35.55-35.55-35.55Zm0,0c-19.62,0-35.53,15.91-35.53,35.55s15.91,35.55,35.53,35.55,35.55-15.91,35.55-35.55-15.91-35.55-35.55-35.55Zm0,0c-19.62,0-35.53,15.91-35.53,35.55s15.91,35.55,35.53,35.55,35.55-15.91,35.55-35.55-15.91-35.55-35.55-35.55Zm0,0c-19.62,0-35.53,15.91-35.53,35.55s15.91,35.55,35.53,35.55,35.55-15.91,35.55-35.55-15.91-35.55-35.55-35.55Zm0,0c-19.62,0-35.53,15.91-35.53,35.55s15.91,35.55,35.53,35.55,35.55-15.91,35.55-35.55-15.91-35.55-35.55-35.55Zm0,0c-19.62,0-35.53,15.91-35.53,35.55s15.91,35.55,35.53,35.55,35.55-15.91,35.55-35.55-15.91-35.55-35.55-35.55Z"/>
  <path class="cls-1" d="m283.97,250c0,19.64-15.91,35.55-35.55,35.55s-35.53-15.91-35.53-35.55,15.91-35.55,35.53-35.55,35.55,15.91,35.55,35.55Z"/>
  <path class="cls-1" d="m299.49,145.71l11.36-5.68c.73-.36,1.32-.95,1.68-1.68l5.68-11.36c1.38-2.77,5.33-2.77,6.72,0l5.68,11.36c.36.73.95,1.32,1.68,1.68l11.36,5.68c2.77,1.38,2.77,5.33,0,6.72l-11.36,5.68c-.73.36-1.32.95-1.68,1.68l-5.68,11.36c-1.38,2.77-5.33,2.77-6.72,0l-5.68-11.36c-.36-.73-.95-1.32-1.68-1.68l-11.36-5.68c-2.77-1.38-2.77-5.33,0-6.72Z"/>
  <path class="cls-1" d="m370.69,126.74l7.7-3.85c.49-.25.89-.65,1.14-1.14l3.85-7.7c.94-1.88,3.61-1.88,4.55,0l3.85,7.7c.25.49.65.89,1.14,1.14l7.7,3.85c1.88.94,1.88,3.61,0,4.55l-7.7,3.85c-.49.25-.89.65-1.14,1.14l-3.85,7.7c-.94,1.88-3.61,1.88-4.55,0l-3.85-7.7c-.25-.49-.65-.89-1.14-1.14l-7.7-3.85c-1.88-.94-1.88-3.62,0-4.55Z"/>
  <path class="cls-1" d="m342.22,164.92l6.42-3.21c.41-.21.74-.54.95-.95l3.21-6.42c.78-1.56,3.01-1.56,3.8,0l3.21,6.42c.21.41.54.74.95.95l6.42,3.21c1.56.78,1.56,3.01,0,3.8l-6.42,3.21c-.41.21-.74.54-.95.95l-3.21,6.42c-.78,1.56-3.01,1.56-3.8,0l-3.21-6.42c-.2-.41-.54-.74-.95-.95l-6.42-3.21c-1.56-.78-1.56-3.01,0-3.8Z"/>
</svg>