<?xml version="1.0" encoding="utf-8"?>
<!-- Generator: Adobe Illustrator 28.0.0, SVG Export Plug-In . SVG Version: 6.00 Build 0)  -->
<svg version="1.1" id="Livello_1" opacity="0.2" xmlns="http://www.w3.org/2000/svg" xmlns:xlink="http://www.w3.org/1999/xlink"
	 x="0px" y="0px" viewBox="0 0 500 500" style="enable-background:new 0 0 500 500;" xml:space="preserve">
<style type="text/css">
	.st0{fill:#FFFFFF;}
</style>
<path class="st0" d="M385.6,250c-21.1-45.9-76.1-76.9-137.5-76.8c-61.3,0.1-116,31.1-136.9,76.8l0,0l0,0l0,0l0,0
	c21.1,45.9,76.1,76.9,137.5,76.8C310,326.7,364.7,295.6,385.6,250L385.6,250L385.6,250z M248.4,307.9c-32,0-57.9-25.9-57.9-57.9
	s25.9-57.9,57.9-57.9s57.9,25.9,57.9,57.9S280.4,307.9,248.4,307.9z"/>
<path class="st0" d="M275.7,284.3c-7.5,6-17,9.5-27.3,9.5s-19.8-3.6-27.3-9.5H275.7z"/>
<path class="st0" d="M290.2,263.5c-1.3,4.1-3.3,8-5.7,11.5h-72.1c-2.4-3.5-4.4-7.4-5.7-11.5H290.2L290.2,263.5z"/>
<path class="st0" d="M292.3,250c0,1.4-0.1,2.8-0.2,4.2h-87.3c-0.1-1.4-0.2-2.8-0.2-4.2c0-2.5,0.2-5,0.6-7.4h86.5
	C292.1,245,292.3,247.5,292.3,250L292.3,250z"/>
<path class="st0" d="M289,233.3h-81.1c1.7-4.2,4.1-8.1,7-11.5H282C284.9,225.2,287.3,229.1,289,233.3L289,233.3z"/>
<path class="st0" d="M271.1,212.4h-45.4c6.6-4,14.4-6.3,22.7-6.3S264.5,208.4,271.1,212.4L271.1,212.4z"/>
</svg>
