<?xml version="1.0" encoding="utf-8"?>
<!-- Generator: Adobe Illustrator 28.0.0, SVG Export Plug-In . SVG Version: 6.00 Build 0)  -->
<svg version="1.1" id="Livello_1" opacity="0.2" xmlns="http://www.w3.org/2000/svg" xmlns:xlink="http://www.w3.org/1999/xlink"
	 x="0px" y="0px" viewBox="0 0 500 500" style="enable-background:new 0 0 500 500;" xml:space="preserve">
<style type="text/css">
	.st0{fill:#000000;}
</style>
<path class="st0" d="M392.3,275.4c-22-48-79.2-80.1-142.5-80.1h-0.3c-63.1,0.1-120.2,32.3-142.1,80.1l-1.1,2.4l1.1,2.4
	c22,48,79.2,80.1,142.5,80.1h0.3c63-0.1,120.2-32.3,142.1-80.1l1.1-2.4L392.3,275.4z M250.1,348.8h-0.3c-57.7,0-109.9-28.4-130.8-71
	c20.9-42.5,73-70.9,130.6-71h0.3c57.7,0,109.9,28.4,130.8,71C359.8,320.3,307.7,348.8,250.1,348.8L250.1,348.8z"/>
<path class="st0" d="M249.9,237.1c-22.5,0-40.7,18.2-40.7,40.7s18.2,40.7,40.7,40.7s40.7-18.2,40.7-40.7S272.3,237.1,249.9,237.1
	L249.9,237.1z M253.5,301.7c-0.8,1.5-2.2,2.3-3.6,2.3s-2.9-0.8-3.6-2.3l-6.2-12.3c-0.4-0.8-1-1.4-1.8-1.8l-12.3-6.1
	c-3-1.5-3-5.8,0-7.3l12.3-6.2c0.8-0.4,1.4-1,1.8-1.8l6.2-12.3c0.8-1.5,2.2-2.2,3.6-2.2s2.9,0.8,3.6,2.2l6.1,12.3
	c0.4,0.8,1,1.4,1.8,1.8l12.3,6.2c3,1.5,3,5.8,0,7.3l-12.3,6.1c-0.8,0.4-1.4,1-1.8,1.8L253.5,301.7L253.5,301.7z"/>
<path class="st0" d="M249.9,217.3c-33.4,0-60.5,27.1-60.5,60.5s27.1,60.5,60.5,60.5s60.5-27.1,60.5-60.5S283.2,217.3,249.9,217.3
	L249.9,217.3z M249.9,326.8c-27,0-49-22-49-49s22-49,49-49s49,22,49,49S276.9,326.8,249.9,326.8L249.9,326.8z"/>
<path class="st0" d="M277.2,267.3l-11.2-5.6l-5.6-11.2c-2-4-6-6.5-10.5-6.5s-8.5,2.5-10.5,6.5l-5.6,11.2l-11.2,5.6
	c-4,2-6.5,6-6.5,10.5s2.5,8.5,6.5,10.5l11.2,5.6l5.6,11.2c2,4,6,6.5,10.5,6.5s8.5-2.5,10.5-6.5l5.6-11.2l11.2-5.6
	c4-2,6.5-6,6.5-10.5S281.2,269.3,277.2,267.3z M273.8,281.5l-12.3,6.1c-0.8,0.4-1.4,1-1.8,1.8l-6.1,12.3c-0.8,1.5-2.2,2.3-3.6,2.3
	s-2.9-0.8-3.6-2.3l-6.2-12.3c-0.4-0.8-1-1.4-1.8-1.8l-12.3-6.1c-3-1.5-3-5.8,0-7.3l12.3-6.2c0.8-0.4,1.4-1,1.8-1.8l6.2-12.3
	c0.8-1.5,2.2-2.2,3.6-2.2s2.9,0.8,3.6,2.2l6.1,12.3c0.4,0.8,1,1.4,1.8,1.8l12.3,6.2C276.8,275.7,276.8,280,273.8,281.5z"/>
<path class="st0" d="M144.1,212.5c-1.9,0-3.7-0.9-4.8-2.5l-14.2-21c-1.8-2.6-1.1-6.2,1.6-8c2.6-1.8,6.2-1.1,8,1.5l14.2,21
	c1.8,2.6,1.1,6.2-1.6,8C146.4,212.2,145.2,212.5,144.1,212.5L144.1,212.5z"/>
<path class="st0" d="M177,195.2c-2.2,0-4.3-1.3-5.2-3.4L160.5,167c-1.3-2.9,0-6.3,2.9-7.6c2.9-1.3,6.3,0,7.6,2.9l11.3,24.8
	c1.3,2.9,0,6.3-2.9,7.6C178.6,195,177.8,195.2,177,195.2z"/>
<path class="st0" d="M214.4,184.4c-2.7,0-5.1-1.9-5.6-4.6l-5.8-28.1c-0.6-3.1,1.4-6.2,4.5-6.8c3.1-0.6,6.2,1.4,6.8,4.5l5.8,28.1
	c0.6,3.1-1.4,6.2-4.5,6.8C215.2,184.4,214.8,184.4,214.4,184.4L214.4,184.4z"/>
<path class="st0" d="M249.9,181.2c-3.2,0-5.8-2.6-5.8-5.8v-30.1c0-3.2,2.6-5.8,5.8-5.8s5.8,2.6,5.8,5.8v30.1
	C255.6,178.6,253,181.2,249.9,181.2z"/>
<path class="st0" d="M355.6,212.5c-1.1,0-2.2-0.3-3.2-1c-2.6-1.8-3.3-5.4-1.5-8l14.2-21c1.8-2.6,5.4-3.3,8-1.5
	c2.6,1.8,3.3,5.4,1.5,8l-14.2,21C359.2,211.6,357.4,212.5,355.6,212.5L355.6,212.5z"/>
<path class="st0" d="M322.7,195.2c-0.8,0-1.6-0.2-2.4-0.5c-2.9-1.3-4.2-4.7-2.9-7.6l11.3-24.8c1.3-2.9,4.7-4.2,7.6-2.9
	c2.9,1.3,4.2,4.7,2.9,7.6l-11.3,24.8C327,193.9,324.9,195.2,322.7,195.2L322.7,195.2z"/>
<path class="st0" d="M285.3,184.4c-0.4,0-0.8,0-1.2-0.1c-3.1-0.6-5.1-3.7-4.5-6.8l5.8-28.1c0.6-3.1,3.7-5.1,6.8-4.5
	c3.1,0.6,5.1,3.7,4.5,6.8l-5.8,28.1C290.4,182.5,288,184.4,285.3,184.4L285.3,184.4z"/>
</svg>
