<?xml version="1.0" encoding="UTF-8"?>
<svg id="Livello_1" data-name="Livello 1" xmlns="http://www.w3.org/2000/svg" viewBox="0 0 500 500">
  <defs>
    <style>
      .cls-1 {
        fill: #fff;
        stroke-width: 0px;
      }
    </style>
  </defs>
  <path class="cls-1" d="m392.3,275.43c-22.02-47.96-79.23-80.13-142.46-80.13h-.29c-63.07.1-120.19,32.3-142.15,80.13l-1.11,2.4,1.11,2.4c22.02,47.96,79.23,80.13,142.46,80.13h.29c63.05-.1,120.19-32.3,142.15-80.13l1.11-2.4-1.11-2.4Zm-142.17,73.42h-.29c-57.7,0-109.87-28.41-130.84-71.02,20.94-42.5,72.99-70.92,130.58-71.02h.27c57.72,0,109.87,28.41,130.84,71.02-20.92,42.5-72.97,70.92-130.56,71.02Z"/>
  <path class="cls-1" d="m249.85,237.14c-22.48,0-40.69,18.21-40.69,40.69s18.21,40.71,40.69,40.71,40.71-18.23,40.71-40.71-18.23-40.69-40.71-40.69Zm3.65,64.59c-.75,1.52-2.19,2.26-3.65,2.26s-2.88-.75-3.63-2.26l-6.16-12.28c-.38-.79-1.02-1.44-1.8-1.82l-12.3-6.14c-2.99-1.5-2.99-5.78,0-7.27l12.3-6.16c.79-.38,1.42-1.04,1.8-1.82l6.16-12.28c.75-1.5,2.19-2.25,3.63-2.25s2.9.75,3.65,2.25l6.14,12.28c.4.79,1.04,1.44,1.82,1.82l12.3,6.16c2.99,1.5,2.99,5.78,0,7.27l-12.3,6.14c-.79.38-1.42,1.04-1.82,1.82l-6.14,12.28Z"/>
  <path class="cls-1" d="m249.85,217.33c-33.36,0-60.48,27.14-60.48,60.5s27.12,60.5,60.48,60.5,60.5-27.14,60.5-60.5-27.14-60.5-60.5-60.5Zm0,109.48c-27.01,0-48.96-21.98-48.96-48.98s21.96-48.98,48.96-48.98,48.98,21.98,48.98,48.98-21.98,48.98-48.98,48.98Z"/>
  <path class="cls-1" d="m277.2,267.33l-11.23-5.62-5.6-11.21c-2.02-4.01-6.03-6.49-10.52-6.49s-8.5,2.48-10.5,6.49l-5.6,11.21-11.23,5.62c-4.01,2-6.49,6.03-6.49,10.5s2.48,8.5,6.49,10.5l11.23,5.62,5.6,11.21c2,4.01,6.03,6.51,10.5,6.51s8.5-2.5,10.52-6.51l5.6-11.21,11.23-5.62c3.99-2,6.49-6.03,6.49-10.5s-2.5-8.5-6.49-10.5Zm-3.44,14.15l-12.3,6.14c-.79.38-1.42,1.04-1.82,1.82l-6.14,12.28c-.75,1.52-2.19,2.26-3.65,2.26s-2.88-.75-3.63-2.26l-6.16-12.28c-.38-.79-1.02-1.44-1.8-1.82l-12.3-6.14c-2.99-1.5-2.99-5.78,0-7.27l12.3-6.16c.79-.38,1.42-1.04,1.8-1.82l6.16-12.28c.75-1.5,2.19-2.25,3.63-2.25s2.9.75,3.65,2.25l6.14,12.28c.4.79,1.04,1.44,1.82,1.82l12.3,6.16c2.99,1.5,2.99,5.78,0,7.27Z"/>
  <path class="cls-1" d="m144.14,212.5c-1.85,0-3.66-.89-4.78-2.53l-14.22-21.04c-1.78-2.64-1.09-6.22,1.55-8,2.63-1.78,6.21-1.09,8,1.54l14.22,21.04c1.78,2.64,1.09,6.22-1.55,8-.99.67-2.11.99-3.22.99Z"/>
  <path class="cls-1" d="m177.03,195.19c-2.19,0-4.28-1.26-5.25-3.38l-11.29-24.84c-1.31-2.9-.03-6.31,2.86-7.62,2.9-1.31,6.31-.03,7.63,2.86l11.29,24.84c1.31,2.9.03,6.31-2.86,7.62-.77.35-1.58.52-2.38.52Z"/>
  <path class="cls-1" d="m214.41,184.42c-2.68,0-5.07-1.88-5.63-4.6l-5.8-28.14c-.64-3.12,1.36-6.16,4.48-6.8,3.13-.64,6.16,1.36,6.8,4.48l5.8,28.14c.64,3.12-1.36,6.16-4.48,6.8-.39.08-.78.12-1.17.12Z"/>
  <path class="cls-1" d="m249.85,181.23c-3.18,0-5.76-2.58-5.76-5.76v-30.08c0-3.18,2.58-5.76,5.76-5.76s5.76,2.58,5.76,5.76v30.08c0,3.18-2.58,5.76-5.76,5.76Z"/>
  <path class="cls-1" d="m355.57,212.5c-1.11,0-2.23-.32-3.22-.99-2.63-1.78-3.33-5.36-1.54-8l14.22-21.04c1.78-2.64,5.36-3.33,8-1.54,2.63,1.78,3.33,5.36,1.55,8l-14.22,21.04c-1.11,1.65-2.93,2.53-4.78,2.53Z"/>
  <path class="cls-1" d="m322.67,195.19c-.8,0-1.61-.17-2.38-.52-2.89-1.32-4.18-4.73-2.86-7.62l11.29-24.84c1.32-2.89,4.73-4.17,7.62-2.86,2.89,1.32,4.18,4.73,2.86,7.62l-11.29,24.84c-.96,2.12-3.06,3.38-5.25,3.38Z"/>
  <path class="cls-1" d="m285.29,184.42c-.38,0-.77-.04-1.17-.12-3.11-.64-5.12-3.69-4.48-6.8l5.8-28.14c.64-3.11,3.68-5.11,6.8-4.48,3.11.64,5.12,3.69,4.48,6.8l-5.8,28.14c-.56,2.72-2.96,4.6-5.63,4.6Z"/>
</svg>