<?xml version="1.0" encoding="UTF-8"?>
<svg id="Livello_1" data-name="Livello 1" xmlns="http://www.w3.org/2000/svg" viewBox="0 0 500 500">
  <defs>
    <style>
      .cls-1 {
        fill: #fff;
        stroke-width: 0px;
      }
    </style>
  </defs>
  <path class="cls-1" d="m392.31,247.6c-22.02-47.97-79.25-80.13-142.46-80.13h-.29c-63.07.1-120.19,32.3-142.17,80.13l-1.09,2.4,1.09,2.4c22.02,47.97,79.25,80.13,142.46,80.13h.29c63.07-.1,120.19-32.3,142.17-80.13l1.09-2.4-1.09-2.4Zm-142.19,73.42h-.27c-55.68,0-106.2-26.45-128.52-66.58-.81-1.46-1.59-2.94-2.32-4.43,2-4.05,4.26-7.95,6.79-11.73v-.02c3.03-4.51,6.43-8.81,10.15-12.9,3.55-3.9,7.39-7.58,11.52-11.06,2.46-2.09,5.03-4.09,7.68-6.01,3.67-2.67,7.52-5.16,11.52-7.5,2.5-1.46,5.07-2.86,7.68-4.18,3.72-1.9,7.58-3.65,11.52-5.28,2.53-1.02,5.09-2,7.68-2.9,3.76-1.32,7.6-2.51,11.52-3.57,2.53-.67,5.11-1.31,7.68-1.88,3.8-.83,7.64-1.54,11.52-2.11,2.53-.36,5.11-.69,7.68-.96,3.8-.4,7.64-.67,11.52-.81,2.03-.08,4.09-.12,6.14-.12h1.54c3.86.04,7.72.19,11.52.48,2.57.17,5.12.42,7.68.73,3.88.44,7.72,1.04,11.52,1.75,2.59.48,5.14,1.02,7.68,1.61,3.92.92,7.75,1.98,11.52,3.17,2.61.81,5.16,1.67,7.68,2.61,3.94,1.44,7.77,3.03,11.52,4.76,2.61,1.21,5.16,2.48,7.68,3.82,3.97,2.09,7.83,4.38,11.52,6.79,2.67,1.79,5.28,3.63,7.79,5.53,4.03,3.09,7.85,6.35,11.4,9.83,2.73,2.61,5.3,5.35,7.7,8.2,2.74,3.21,5.28,6.54,7.6,10v.02c.83,1.25,1.65,2.5,2.42,3.8,1.59,2.57,3.05,5.22,4.38,7.93-.73,1.5-1.52,2.98-2.34,4.43-22.25,40.02-72.69,66.49-128.23,66.58Z"/>
  <path class="cls-1" d="m304.71,224.49c-1.32-2.84-2.86-5.55-4.59-8.12-1-1.48-2.05-2.92-3.17-4.3-2.25-2.78-4.74-5.37-7.45-7.74-2.4-2.09-4.97-3.97-7.68-5.68-3.61-2.25-7.47-4.13-11.52-5.59-2.5-.9-5.05-1.65-7.68-2.21-3.72-.81-7.56-1.27-11.52-1.34-.42-.02-.84-.02-1.27-.02-2.17,0-4.3.11-6.41.33-3.97.42-7.81,1.23-11.52,2.38-2.65.83-5.2,1.82-7.68,2.99-4.11,1.92-7.95,4.28-11.48,7.02-2.76,2.17-5.36,4.55-7.72,7.16-.81.86-1.57,1.78-2.32,2.71-1.73,2.15-3.32,4.41-4.74,6.79-1.09,1.8-2.09,3.67-2.99,5.6-3.61,7.75-5.64,16.39-5.64,25.51,0,33.36,27.14,60.5,60.5,60.5s60.5-27.14,60.5-60.5c0-9.12-2.03-17.75-5.64-25.51Zm-54.86,74.49c-27.01,0-48.98-21.98-48.98-48.98s21.98-48.98,48.98-48.98,48.98,21.98,48.98,48.98-21.98,48.98-48.98,48.98Z"/>
  <path class="cls-1" d="m249.86,216.7c-6.91,0-13.32,2.09-18.64,5.7,2.8-.27,5.7.44,8.16,2.23,5.41,3.9,6.64,11.44,2.76,16.83-3.9,5.41-11.44,6.62-16.85,2.71-3.19-2.28-4.91-5.83-5.01-9.44-2.38,4.57-3.72,9.77-3.72,15.28,0,18.39,14.91,33.3,33.3,33.3s33.3-14.91,33.3-33.3-14.91-33.3-33.3-33.3Zm17.43,52.84c-1.82,2.55-5.37,3.11-7.93,1.29-2.53-1.84-3.11-5.37-1.29-7.93,1.82-2.53,5.37-3.09,7.93-1.27,2.53,1.84,3.11,5.37,1.29,7.91Zm2.59-9.04c-1.42-1.02-1.75-2.99-.71-4.41,1.02-1.4,2.99-1.73,4.4-.71,1.42,1.04,1.75,2.99.73,4.41-1.02,1.42-2.99,1.73-4.41.71Z"/>
  <path class="cls-1" d="m379.54,254.57c-1.14,0-2.3-.34-3.3-1.05-20.5-14.4-47.59-24.89-78.35-30.33-3.13-.55-5.22-3.54-4.67-6.67.55-3.13,3.54-5.23,6.67-4.67,32.41,5.74,61.09,16.89,82.96,32.25,2.6,1.83,3.23,5.42,1.4,8.02-1.12,1.6-2.91,2.45-4.72,2.45Z"/>
  <path class="cls-1" d="m120.17,254.57c-1.81,0-3.6-.85-4.72-2.45-1.83-2.6-1.2-6.19,1.4-8.02,21.87-15.36,50.55-26.51,82.96-32.25,3.14-.55,6.12,1.54,6.67,4.67.55,3.13-1.53,6.12-4.67,6.67-30.76,5.45-57.85,15.94-78.35,30.33-1.01.71-2.16,1.05-3.3,1.05Z"/>
  <path class="cls-1" d="m141.71,238.24c-3.18,0-5.76-2.58-5.76-5.76v-19.22c0-3.18,2.58-5.76,5.76-5.76s5.76,2.58,5.76,5.76v19.22c0,3.18-2.58,5.76-5.76,5.76Z"/>
  <path class="cls-1" d="m160.91,232.48c-3.18,0-5.76-2.58-5.76-5.76v-26.9c0-3.18,2.58-5.76,5.76-5.76s5.76,2.58,5.76,5.76v26.9c0,3.18-2.58,5.76-5.76,5.76Z"/>
  <path class="cls-1" d="m180.1,224.8c-3.18,0-5.76-2.58-5.76-5.76v-28.82c0-3.18,2.58-5.76,5.76-5.76s5.76,2.58,5.76,5.76v28.82c0,3.18-2.58,5.76-5.76,5.76Z"/>
  <path class="cls-1" d="m199.3,219.04c-3.18,0-5.76-2.58-5.76-5.76v-28.82c0-3.18,2.58-5.76,5.76-5.76s5.76,2.58,5.76,5.76v28.82c0,3.18-2.58,5.76-5.76,5.76Z"/>
  <path class="cls-1" d="m218.49,207.53c-3.18,0-5.76-2.58-5.76-5.76v-24.98c0-3.18,2.58-5.76,5.76-5.76s5.76,2.58,5.76,5.76v24.98c0,3.18-2.58,5.76-5.76,5.76Z"/>
  <path class="cls-1" d="m237.68,199.85c-3.18,0-5.76-2.58-5.76-5.76v-17.3c0-3.18,2.58-5.76,5.76-5.76s5.76,2.58,5.76,5.76v17.3c0,3.18-2.58,5.76-5.76,5.76Z"/>
  <path class="cls-1" d="m256.88,199.85c-3.18,0-5.76-2.58-5.76-5.76v-17.3c0-3.18,2.58-5.76,5.76-5.76s5.76,2.58,5.76,5.76v17.3c0,3.18-2.58,5.76-5.76,5.76Z"/>
  <path class="cls-1" d="m276.07,205.61c-3.18,0-5.76-2.58-5.76-5.76v-21.14c0-3.18,2.58-5.76,5.76-5.76s5.76,2.58,5.76,5.76v21.14c0,3.18-2.58,5.76-5.76,5.76Z"/>
  <path class="cls-1" d="m295.27,219.04c-3.18,0-5.76-2.58-5.76-5.76v-32.66c0-3.18,2.58-5.76,5.76-5.76s5.76,2.58,5.76,5.76v32.66c0,3.18-2.58,5.76-5.76,5.76Z"/>
  <path class="cls-1" d="m314.46,224.8c-3.18,0-5.76-2.58-5.76-5.76v-30.74c0-3.18,2.58-5.76,5.76-5.76s5.76,2.58,5.76,5.76v30.74c0,3.18-2.58,5.76-5.76,5.76Z"/>
  <path class="cls-1" d="m333.65,228.64c-3.18,0-5.76-2.58-5.76-5.76v-24.98c0-3.18,2.58-5.76,5.76-5.76s5.76,2.58,5.76,5.76v24.98c0,3.18-2.58,5.76-5.76,5.76Z"/>
  <path class="cls-1" d="m352.85,234.4c-3.18,0-5.76-2.58-5.76-5.76v-17.3c0-3.18,2.58-5.76,5.76-5.76s5.76,2.58,5.76,5.76v17.3c0,3.18-2.58,5.76-5.76,5.76Z"/>
  <path class="cls-1" d="m372.04,243.99c-3.18,0-5.76-2.58-5.76-5.76v-9.63c0-3.18,2.58-5.76,5.76-5.76s5.76,2.58,5.76,5.76v9.63c0,3.18-2.58,5.76-5.76,5.76Z"/>
</svg>