<?xml version="1.0" encoding="utf-8"?>
<!-- Generator: Adobe Illustrator 28.0.0, SVG Export Plug-In . SVG Version: 6.00 Build 0)  -->
<svg version="1.1" id="Livello_1" opacity="0.2" xmlns="http://www.w3.org/2000/svg" xmlns:xlink="http://www.w3.org/1999/xlink"
	 x="0px" y="0px" viewBox="0 0 500 500" style="enable-background:new 0 0 500 500;" xml:space="preserve">
<style type="text/css">
	.st0{fill:#00aaff;}
</style>
<path class="st0" d="M392.3,247.6c-22-48-79.2-80.1-142.5-80.1h-0.3c-63.1,0.1-120.2,32.3-142.2,80.1l-1.1,2.4l1.1,2.4
	c22,48,79.2,80.1,142.5,80.1h0.3c63.1-0.1,120.2-32.3,142.2-80.1l1.1-2.4L392.3,247.6z M250.1,321h-0.3
	c-55.7,0-106.2-26.5-128.5-66.6c-0.8-1.5-1.6-2.9-2.3-4.4c2-4.1,4.3-7.9,6.8-11.7v0c3-4.5,6.4-8.8,10.1-12.9
	c3.6-3.9,7.4-7.6,11.5-11.1c2.5-2.1,5-4.1,7.7-6c3.7-2.7,7.5-5.2,11.5-7.5c2.5-1.5,5.1-2.9,7.7-4.2c3.7-1.9,7.6-3.6,11.5-5.3
	c2.5-1,5.1-2,7.7-2.9c3.8-1.3,7.6-2.5,11.5-3.6c2.5-0.7,5.1-1.3,7.7-1.9c3.8-0.8,7.6-1.5,11.5-2.1c2.5-0.4,5.1-0.7,7.7-1
	c3.8-0.4,7.6-0.7,11.5-0.8c2-0.1,4.1-0.1,6.1-0.1h1.5c3.9,0,7.7,0.2,11.5,0.5c2.6,0.2,5.1,0.4,7.7,0.7c3.9,0.4,7.7,1,11.5,1.8
	c2.6,0.5,5.1,1,7.7,1.6c3.9,0.9,7.8,2,11.5,3.2c2.6,0.8,5.2,1.7,7.7,2.6c3.9,1.4,7.8,3,11.5,4.8c2.6,1.2,5.2,2.5,7.7,3.8
	c4,2.1,7.8,4.4,11.5,6.8c2.7,1.8,5.3,3.6,7.8,5.5c4,3.1,7.9,6.4,11.4,9.8c2.7,2.6,5.3,5.4,7.7,8.2c2.7,3.2,5.3,6.5,7.6,10v0
	c0.8,1.2,1.6,2.5,2.4,3.8c1.6,2.6,3,5.2,4.4,7.9c-0.7,1.5-1.5,3-2.3,4.4C356.2,294.5,305.7,320.9,250.1,321L250.1,321z"/>
<path class="st0" d="M304.7,224.5c-1.3-2.8-2.9-5.6-4.6-8.1c-1-1.5-2-2.9-3.2-4.3c-2.2-2.8-4.7-5.4-7.5-7.7c-2.4-2.1-5-4-7.7-5.7
	c-3.6-2.2-7.5-4.1-11.5-5.6c-2.5-0.9-5-1.6-7.7-2.2c-3.7-0.8-7.6-1.3-11.5-1.3c-0.4,0-0.8,0-1.3,0c-2.2,0-4.3,0.1-6.4,0.3
	c-4,0.4-7.8,1.2-11.5,2.4c-2.6,0.8-5.2,1.8-7.7,3c-4.1,1.9-7.9,4.3-11.5,7c-2.8,2.2-5.4,4.6-7.7,7.2c-0.8,0.9-1.6,1.8-2.3,2.7
	c-1.7,2.1-3.3,4.4-4.7,6.8c-1.1,1.8-2.1,3.7-3,5.6c-3.6,7.8-5.6,16.4-5.6,25.5c0,33.4,27.1,60.5,60.5,60.5s60.5-27.1,60.5-60.5
	C310.3,240.9,308.3,232.2,304.7,224.5L304.7,224.5z M249.8,299c-27,0-49-22-49-49s22-49,49-49s49,22,49,49S276.8,299,249.8,299z"/>
<path class="st0" d="M249.9,216.7c-6.9,0-13.3,2.1-18.6,5.7c2.8-0.3,5.7,0.4,8.2,2.2c5.4,3.9,6.6,11.4,2.8,16.8
	c-3.9,5.4-11.4,6.6-16.9,2.7c-3.2-2.3-4.9-5.8-5-9.4c-2.4,4.6-3.7,9.8-3.7,15.3c0,18.4,14.9,33.3,33.3,33.3s33.3-14.9,33.3-33.3
	S268.2,216.7,249.9,216.7L249.9,216.7z M267.3,269.5c-1.8,2.5-5.4,3.1-7.9,1.3c-2.5-1.8-3.1-5.4-1.3-7.9c1.8-2.5,5.4-3.1,7.9-1.3
	C268.5,263.5,269.1,267,267.3,269.5L267.3,269.5z M269.9,260.5c-1.4-1-1.8-3-0.7-4.4c1-1.4,3-1.7,4.4-0.7c1.4,1,1.8,3,0.7,4.4
	C273.3,261.2,271.3,261.5,269.9,260.5L269.9,260.5z"/>
<path class="st0" d="M379.5,254.6c-1.1,0-2.3-0.3-3.3-1.1c-20.5-14.4-47.6-24.9-78.4-30.3c-3.1-0.6-5.2-3.5-4.7-6.7s3.5-5.2,6.7-4.7
	c32.4,5.7,61.1,16.9,83,32.2c2.6,1.8,3.2,5.4,1.4,8C383.1,253.7,381.3,254.6,379.5,254.6L379.5,254.6z"/>
<path class="st0" d="M120.2,254.6c-1.8,0-3.6-0.9-4.7-2.4c-1.8-2.6-1.2-6.2,1.4-8c21.9-15.4,50.5-26.5,83-32.2
	c3.1-0.6,6.1,1.5,6.7,4.7s-1.5,6.1-4.7,6.7c-30.8,5.4-57.9,15.9-78.3,30.3C122.4,254.2,121.3,254.6,120.2,254.6L120.2,254.6z"/>
<path class="st0" d="M141.7,238.2c-3.2,0-5.8-2.6-5.8-5.8v-19.2c0-3.2,2.6-5.8,5.8-5.8s5.8,2.6,5.8,5.8v19.2
	C147.5,235.7,144.9,238.2,141.7,238.2z"/>
<path class="st0" d="M160.9,232.5c-3.2,0-5.8-2.6-5.8-5.8v-26.9c0-3.2,2.6-5.8,5.8-5.8s5.8,2.6,5.8,5.8v26.9
	C166.7,229.9,164.1,232.5,160.9,232.5z"/>
<path class="st0" d="M180.1,224.8c-3.2,0-5.8-2.6-5.8-5.8v-28.8c0-3.2,2.6-5.8,5.8-5.8s5.8,2.6,5.8,5.8V219
	C185.9,222.2,183.3,224.8,180.1,224.8z"/>
<path class="st0" d="M199.3,219c-3.2,0-5.8-2.6-5.8-5.8v-28.8c0-3.2,2.6-5.8,5.8-5.8s5.8,2.6,5.8,5.8v28.8
	C205.1,216.5,202.5,219,199.3,219z"/>
<path class="st0" d="M218.5,207.5c-3.2,0-5.8-2.6-5.8-5.8v-25c0-3.2,2.6-5.8,5.8-5.8s5.8,2.6,5.8,5.8v25
	C224.2,204.9,221.7,207.5,218.5,207.5z"/>
<path class="st0" d="M237.7,199.9c-3.2,0-5.8-2.6-5.8-5.8v-17.3c0-3.2,2.6-5.8,5.8-5.8s5.8,2.6,5.8,5.8v17.3
	C243.4,197.3,240.9,199.9,237.7,199.9z"/>
<path class="st0" d="M256.9,199.9c-3.2,0-5.8-2.6-5.8-5.8v-17.3c0-3.2,2.6-5.8,5.8-5.8s5.8,2.6,5.8,5.8v17.3
	C262.6,197.3,260.1,199.9,256.9,199.9z"/>
<path class="st0" d="M276.1,205.6c-3.2,0-5.8-2.6-5.8-5.8v-21.1c0-3.2,2.6-5.8,5.8-5.8s5.8,2.6,5.8,5.8v21.1
	C281.8,203,279.3,205.6,276.1,205.6z"/>
<path class="st0" d="M295.3,219c-3.2,0-5.8-2.6-5.8-5.8v-32.7c0-3.2,2.6-5.8,5.8-5.8s5.8,2.6,5.8,5.8v32.7
	C301,216.5,298.5,219,295.3,219z"/>
<path class="st0" d="M314.5,224.8c-3.2,0-5.8-2.6-5.8-5.8v-30.7c0-3.2,2.6-5.8,5.8-5.8s5.8,2.6,5.8,5.8V219
	C320.2,222.2,317.6,224.8,314.5,224.8z"/>
<path class="st0" d="M333.6,228.6c-3.2,0-5.8-2.6-5.8-5.8v-25c0-3.2,2.6-5.8,5.8-5.8s5.8,2.6,5.8,5.8v25
	C339.4,226.1,336.8,228.6,333.6,228.6z"/>
<path class="st0" d="M352.9,234.4c-3.2,0-5.8-2.6-5.8-5.8v-17.3c0-3.2,2.6-5.8,5.8-5.8s5.8,2.6,5.8,5.8v17.3
	C358.6,231.8,356,234.4,352.9,234.4z"/>
<path class="st0" d="M372,244c-3.2,0-5.8-2.6-5.8-5.8v-9.6c0-3.2,2.6-5.8,5.8-5.8s5.8,2.6,5.8,5.8v9.6
	C377.8,241.4,375.2,244,372,244z"/>
</svg>
