<?xml version="1.0" encoding="utf-8"?>
<!-- Generator: Adobe Illustrator 28.0.0, SVG Export Plug-In . SVG Version: 6.00 Build 0)  -->
<svg version="1.1" id="Livello_1" opacity="0.2" xmlns="http://www.w3.org/2000/svg" xmlns:xlink="http://www.w3.org/1999/xlink"
	 x="0px" y="0px" viewBox="0 0 500 500" style="enable-background:new 0 0 500 500;" xml:space="preserve">
<style type="text/css">
	.st0{fill:#aa55ff;}
</style>
<path class="st0" d="M248.4,214.4c-19.6,0-35.5,15.9-35.5,35.6s15.9,35.5,35.5,35.5S284,269.6,284,250S268.1,214.4,248.4,214.4
	L248.4,214.4z M248.4,214.4c-19.6,0-35.5,15.9-35.5,35.6s15.9,35.5,35.5,35.5S284,269.6,284,250S268.1,214.4,248.4,214.4
	L248.4,214.4z M248.4,214.4c-19.6,0-35.5,15.9-35.5,35.6s15.9,35.5,35.5,35.5S284,269.6,284,250S268.1,214.4,248.4,214.4
	L248.4,214.4z M248.4,214.4c-19.6,0-35.5,15.9-35.5,35.6s15.9,35.5,35.5,35.5S284,269.6,284,250S268.1,214.4,248.4,214.4
	L248.4,214.4z M248.4,214.4c-19.6,0-35.5,15.9-35.5,35.6s15.9,35.5,35.5,35.5S284,269.6,284,250S268.1,214.4,248.4,214.4
	L248.4,214.4z M248.4,214.4c-19.6,0-35.5,15.9-35.5,35.6s15.9,35.5,35.5,35.5S284,269.6,284,250S268.1,214.4,248.4,214.4
	L248.4,214.4z M248.4,214.4c-19.6,0-35.5,15.9-35.5,35.6s15.9,35.5,35.5,35.5S284,269.6,284,250S268.1,214.4,248.4,214.4
	L248.4,214.4z M248.4,214.4c-19.6,0-35.5,15.9-35.5,35.6s15.9,35.5,35.5,35.5S284,269.6,284,250S268.1,214.4,248.4,214.4
	L248.4,214.4z M248.1,173.2c-61.3,0.1-116,31.1-136.9,76.8c21,45.8,75.9,76.8,137.2,76.8h0.3c61.3-0.1,116-31.1,136.9-76.8
	C364.6,204.1,309.6,173.1,248.1,173.2L248.1,173.2z M303,226.2c-1.6,0.6-3.2,1.1-4.7,1.3c3.1,6.9,4.8,14.5,4.8,22.5
	c0,30.2-24.5,54.7-54.7,54.7s-54.7-24.5-54.7-54.7s24.5-54.7,54.7-54.7c16.1,0,30.6,6.9,40.6,18c1.6-1.9,3.9-3.6,6.6-4.8
	c6.8-2.9,14-1.2,16.1,3.7C313.7,217.1,309.9,223.4,303,226.2L303,226.2z M248.4,214.4c-19.6,0-35.5,15.9-35.5,35.6
	s15.9,35.6,35.5,35.6S284,269.6,284,250S268.1,214.4,248.4,214.4z M248.4,214.4c-19.6,0-35.5,15.9-35.5,35.6s15.9,35.6,35.5,35.6
	S284,269.6,284,250S268.1,214.4,248.4,214.4z M248.4,214.4c-19.6,0-35.5,15.9-35.5,35.6s15.9,35.6,35.5,35.6S284,269.6,284,250
	S268.1,214.4,248.4,214.4z M248.4,214.4c-19.6,0-35.5,15.9-35.5,35.6s15.9,35.6,35.5,35.6S284,269.6,284,250
	S268.1,214.4,248.4,214.4z M248.4,214.4c-19.6,0-35.5,15.9-35.5,35.6s15.9,35.6,35.5,35.6S284,269.6,284,250
	S268.1,214.4,248.4,214.4z M248.4,214.4c-19.6,0-35.5,15.9-35.5,35.6s15.9,35.6,35.5,35.6S284,269.6,284,250
	S268.1,214.4,248.4,214.4z M248.4,214.4c-19.6,0-35.5,15.9-35.5,35.6s15.9,35.6,35.5,35.6S284,269.6,284,250
	S268.1,214.4,248.4,214.4z"/>
<path class="st0" d="M284,250c0,19.6-15.9,35.5-35.6,35.5s-35.5-15.9-35.5-35.6s15.9-35.6,35.5-35.6S284,230.4,284,250L284,250z"/>
<path class="st0" d="M299.5,145.7l11.4-5.7c0.7-0.4,1.3-0.9,1.7-1.7l5.7-11.4c1.4-2.8,5.3-2.8,6.7,0l5.7,11.4c0.4,0.7,1,1.3,1.7,1.7
	l11.4,5.7c2.8,1.4,2.8,5.3,0,6.7l-11.4,5.7c-0.7,0.4-1.3,0.9-1.7,1.7l-5.7,11.4c-1.4,2.8-5.3,2.8-6.7,0l-5.7-11.4
	c-0.4-0.7-1-1.3-1.7-1.7l-11.4-5.7C296.7,151.1,296.7,147.1,299.5,145.7z"/>
<path class="st0" d="M370.7,126.7l7.7-3.8c0.5-0.2,0.9-0.7,1.1-1.1l3.9-7.7c0.9-1.9,3.6-1.9,4.5,0l3.9,7.7c0.2,0.5,0.6,0.9,1.1,1.1
	l7.7,3.8c1.9,0.9,1.9,3.6,0,4.5l-7.7,3.9c-0.5,0.2-0.9,0.6-1.1,1.1l-3.9,7.7c-0.9,1.9-3.6,1.9-4.5,0l-3.9-7.7
	c-0.2-0.5-0.6-0.9-1.1-1.1l-7.7-3.9C368.8,130.3,368.8,127.7,370.7,126.7z"/>
<path class="st0" d="M342.2,164.9l6.4-3.2c0.4-0.2,0.7-0.5,1-0.9l3.2-6.4c0.8-1.6,3-1.6,3.8,0l3.2,6.4c0.2,0.4,0.5,0.7,1,0.9
	l6.4,3.2c1.6,0.8,1.6,3,0,3.8l-6.4,3.2c-0.4,0.2-0.7,0.5-1,0.9l-3.2,6.4c-0.8,1.6-3,1.6-3.8,0l-3.2-6.4c-0.2-0.4-0.5-0.7-1-0.9
	l-6.4-3.2C340.7,167.9,340.7,165.7,342.2,164.9z"/>
</svg>
